#define ptl_logo_width 128
#define ptl_logo_height 160
static unsigned char ptl_logo_bits[] = {
   0x00, 0x00, 0x00, 0x00, 0x00, 0x00, 0x00, 0x00, 0x00, 0x00, 0x00, 0x00,
   0x00, 0x00, 0x00, 0x00, 0x00, 0x00, 0x00, 0x00, 0x00, 0x00, 0x00, 0x00,
   0x00, 0x00, 0x00, 0x00, 0x00, 0x00, 0x00, 0x00, 0x00, 0x00, 0x00, 0x00,
   0x00, 0x00, 0x00, 0x00, 0x00, 0x00, 0x00, 0x00, 0x00, 0x00, 0x00, 0x00,
   0x00, 0x00, 0x00, 0x00, 0x00, 0x00, 0x00, 0x00, 0x00, 0x00, 0x00, 0x00,
   0x00, 0x00, 0x00, 0x00, 0x00, 0x00, 0x00, 0x00, 0x00, 0x00, 0x00, 0x00,
   0x00, 0x00, 0x00, 0x00, 0x00, 0x00, 0x00, 0x00, 0x00, 0x00, 0x00, 0x00,
   0x00, 0x00, 0x00, 0x00, 0x00, 0x00, 0x00, 0x00, 0x00, 0x00, 0x00, 0x00,
   0x00, 0x00, 0x00, 0x00, 0x00, 0x00, 0x00, 0x00, 0x00, 0x00, 0x00, 0x00,
   0x00, 0x00, 0x00, 0x00, 0x00, 0x00, 0x00, 0x00, 0x00, 0x00, 0x00, 0x00,
   0x00, 0x00, 0x00, 0x00, 0x00, 0x00, 0x00, 0x00, 0x00, 0x00, 0x00, 0x00,
   0x00, 0x00, 0x00, 0x00, 0x00, 0x00, 0x00, 0x00, 0x00, 0x00, 0x00, 0x00,
   0x00, 0x00, 0x00, 0x00, 0x00, 0x00, 0x00, 0x00, 0x00, 0x00, 0x00, 0x00,
   0x00, 0x00, 0x00, 0x00, 0x00, 0x00, 0x00, 0x00, 0x00, 0x00, 0x00, 0x00,
   0x00, 0x00, 0x00, 0x00, 0x00, 0x00, 0x00, 0x00, 0x00, 0x00, 0x00, 0x00,
   0x00, 0x00, 0x00, 0x00, 0x00, 0x00, 0x00, 0x00, 0x00, 0x00, 0x00, 0x00,
   0x00, 0x00, 0x00, 0x00, 0x00, 0x00, 0x00, 0x00, 0x00, 0x00, 0x00, 0x00,
   0x00, 0x00, 0x00, 0x00, 0x00, 0x00, 0x00, 0x00, 0x00, 0x00, 0x00, 0x00,
   0x00, 0x00, 0x00, 0x00, 0x00, 0x00, 0x00, 0x00, 0x00, 0x00, 0x00, 0x00,
   0x00, 0x00, 0x00, 0x00, 0x00, 0x00, 0x00, 0x00, 0x00, 0x00, 0x00, 0x00,
   0x00, 0x00, 0x00, 0x00, 0x00, 0x00, 0x00, 0x00, 0x00, 0x00, 0x00, 0x00,
   0x00, 0x00, 0x00, 0x00, 0x00, 0x00, 0x00, 0x00, 0x00, 0x00, 0x00, 0x00,
   0x00, 0x00, 0x00, 0x00, 0x00, 0x00, 0x00, 0x00, 0x00, 0x00, 0x00, 0x00,
   0x00, 0x00, 0x00, 0x00, 0x00, 0x00, 0x00, 0x00, 0x00, 0x00, 0x00, 0x00,
   0x00, 0x00, 0x00, 0x00, 0x00, 0x00, 0x00, 0x00, 0x00, 0x00, 0x00, 0x00,
   0x00, 0x00, 0x00, 0x00, 0x00, 0x00, 0x00, 0x00, 0x00, 0x00, 0x00, 0x00,
   0x00, 0x00, 0x00, 0x00, 0x00, 0x00, 0x00, 0x00, 0x00, 0x00, 0x00, 0x00,
   0x00, 0x00, 0x00, 0x00, 0x00, 0x00, 0x00, 0x00, 0x00, 0x00, 0x00, 0x00,
   0x00, 0x00, 0x00, 0x00, 0x00, 0x00, 0x00, 0x00, 0x00, 0x00, 0x00, 0x00,
   0x00, 0x00, 0x00, 0x00, 0x00, 0x00, 0x00, 0x00, 0x00, 0x00, 0x00, 0x00,
   0x00, 0x00, 0x00, 0x00, 0x00, 0x00, 0x00, 0x00, 0x00, 0x00, 0x00, 0x00,
   0x00, 0x00, 0x00, 0x00, 0x00, 0x00, 0x00, 0x00, 0x00, 0x00, 0x00, 0x00,
   0x00, 0x00, 0x00, 0x00, 0x00, 0x00, 0x00, 0x09, 0x40, 0x00, 0x00, 0x00,
   0x00, 0x00, 0x00, 0x00, 0x00, 0x00, 0x00, 0x00, 0x00, 0x00, 0x03, 0xfd,
   0x80, 0x00, 0x00, 0x00, 0x00, 0x00, 0x00, 0x00, 0x00, 0x00, 0x00, 0x00,
   0x00, 0x00, 0x02, 0xae, 0x00, 0x00, 0x00, 0x00, 0x00, 0x00, 0x00, 0x00,
   0x00, 0x00, 0x00, 0x00, 0x00, 0x00, 0x03, 0xeb, 0x10, 0x00, 0x00, 0x00,
   0x00, 0x00, 0x00, 0x00, 0x00, 0x00, 0x00, 0x00, 0x00, 0x00, 0x06, 0xbc,
   0x38, 0x00, 0x00, 0x00, 0x00, 0x00, 0x00, 0x00, 0x00, 0x00, 0x00, 0x00,
   0x00, 0x00, 0x03, 0xa8, 0x28, 0x00, 0x00, 0x00, 0x00, 0x00, 0x00, 0x00,
   0x00, 0x00, 0x00, 0x00, 0x00, 0x00, 0x0e, 0xf0, 0xf4, 0x00, 0x00, 0x00,
   0x00, 0x00, 0x00, 0x00, 0x00, 0x00, 0x00, 0x00, 0x00, 0x00, 0x07, 0x51,
   0x58, 0x00, 0x00, 0x30, 0x00, 0x00, 0x00, 0x00, 0x00, 0x00, 0x00, 0x00,
   0x00, 0x00, 0x0d, 0xc2, 0xe0, 0x00, 0x00, 0x54, 0x00, 0x00, 0x00, 0x00,
   0x00, 0x00, 0x00, 0x00, 0x00, 0x00, 0x17, 0x43, 0x62, 0x00, 0x01, 0x68,
   0x00, 0x00, 0x00, 0x00, 0x00, 0x00, 0x00, 0x04, 0x00, 0x00, 0x0d, 0x8e,
   0xc2, 0x80, 0x01, 0x50, 0x80, 0x00, 0x00, 0x00, 0x00, 0x00, 0x00, 0x07,
   0x00, 0x00, 0x3e, 0x16, 0x86, 0xc0, 0x01, 0xa1, 0x40, 0x00, 0x00, 0x00,
   0x00, 0x00, 0x00, 0x1f, 0x80, 0x03, 0xea, 0x2d, 0x1b, 0x0e, 0x86, 0xc2,
   0xb0, 0x00, 0x00, 0x00, 0x00, 0x00, 0x00, 0x3d, 0xe0, 0x0d, 0x78, 0x6e,
   0x1b, 0x0b, 0x0a, 0x8b, 0x40, 0x00, 0x00, 0x00, 0x00, 0x00, 0x00, 0xff,
   0xf0, 0x7f, 0xd0, 0xba, 0x5c, 0x34, 0x1d, 0x0d, 0x40, 0x00, 0x00, 0x00,
   0x00, 0x00, 0x00, 0xff, 0x7d, 0xb6, 0xf0, 0xd8, 0x54, 0x5e, 0x56, 0x15,
   0x88, 0x00, 0x00, 0x00, 0x00, 0x00, 0x03, 0xef, 0xff, 0xff, 0xa3, 0xe1,
   0xf8, 0xb0, 0x54, 0x2a, 0x08, 0x00, 0x00, 0x00, 0x00, 0x00, 0x07, 0xfb,
   0xb6, 0xd5, 0xc5, 0x71, 0x50, 0xd8, 0xd8, 0xbb, 0x08, 0x00, 0x00, 0x00,
   0x00, 0x00, 0x0f, 0xff, 0xff, 0xff, 0x0f, 0x83, 0xa3, 0x61, 0x60, 0xcc,
   0x30, 0x00, 0x00, 0x00, 0x00, 0x00, 0x0f, 0xfd, 0xfd, 0xbb, 0x05, 0xc6,
   0xc5, 0xa3, 0xb1, 0x68, 0x50, 0x00, 0x00, 0x00, 0x00, 0x00, 0x0f, 0x77,
   0x6f, 0xee, 0x3f, 0x0d, 0x86, 0x85, 0x43, 0x50, 0xa8, 0x00, 0x00, 0x00,
   0x00, 0x00, 0x07, 0xf0, 0xfb, 0x74, 0x2d, 0x1f, 0x1b, 0x8d, 0x8a, 0xd1,
   0x60, 0x00, 0x00, 0x00, 0x00, 0x00, 0x07, 0xe0, 0x00, 0x00, 0x7a, 0x34,
   0x16, 0x16, 0x0b, 0x42, 0xb0, 0x00, 0x00, 0x00, 0x00, 0x00, 0x07, 0xe0,
   0x00, 0x01, 0xdc, 0x7c, 0x7a, 0x1b, 0x2d, 0x45, 0xa0, 0x00, 0x00, 0x00,
   0x00, 0x00, 0x03, 0xe0, 0xaa, 0xdb, 0x70, 0xd0, 0xac, 0x74, 0x37, 0x0a,
   0xa8, 0x00, 0x00, 0x00, 0x00, 0x00, 0x03, 0xf9, 0xff, 0xff, 0xf1, 0xf8,
   0xf0, 0xdc, 0x55, 0x0d, 0xa8, 0x00, 0x00, 0x00, 0x00, 0x00, 0x03, 0xff,
   0xff, 0x6d, 0xa3, 0x43, 0x51, 0x60, 0xec, 0x36, 0xd0, 0x00, 0x00, 0x00,
   0x00, 0x00, 0x01, 0xff, 0xbb, 0xff, 0xc7, 0xe3, 0xe3, 0xb2, 0xb4, 0x35,
   0x60, 0x00, 0x00, 0x00, 0x00, 0x00, 0x01, 0xdf, 0xeb, 0xed, 0x0d, 0x86,
   0x85, 0x63, 0x68, 0xd6, 0x83, 0x00, 0x00, 0x00, 0x00, 0x00, 0x01, 0xfb,
   0xe0, 0xb7, 0x1f, 0x1b, 0x87, 0x83, 0x50, 0xda, 0xc5, 0x00, 0x00, 0x00,
   0x00, 0x00, 0x03, 0xff, 0xc0, 0x00, 0x36, 0x1e, 0x1d, 0x0d, 0xc3, 0x6b,
   0x0a, 0xa8, 0x68, 0x00, 0x00, 0x00, 0x07, 0xff, 0xc0, 0x00, 0x7a, 0x36,
   0x17, 0x2e, 0xc5, 0x5a, 0x2b, 0x50, 0x50, 0x00, 0x00, 0x00, 0x0f, 0xfd,
   0xe1, 0xff, 0xf8, 0xec, 0x7a, 0x35, 0x0b, 0xac, 0x2d, 0x51, 0x50, 0x00,
   0x00, 0x00, 0x0f, 0xff, 0xfb, 0xff, 0xd8, 0x78, 0x6c, 0x5f, 0x1a, 0xb4,
   0x35, 0x45, 0x40, 0x00, 0x00, 0x00, 0x1f, 0xff, 0xef, 0x6d, 0x63, 0xd1,
   0xd8, 0xea, 0x2d, 0xd0, 0xd6, 0x85, 0x40, 0x00, 0x00, 0x00, 0x3f, 0xbe,
   0xff, 0xff, 0xa1, 0xe2, 0xf1, 0x6c, 0x6d, 0x51, 0x5a, 0x8a, 0x80, 0x00,
   0x01, 0xff, 0xff, 0xff, 0xff, 0xee, 0x07, 0x47, 0xa3, 0xb0, 0xb7, 0xa3,
   0x6a, 0x15, 0x00, 0x00, 0x01, 0xff, 0xff, 0xff, 0xfb, 0x7c, 0x4f, 0x8a,
   0xc5, 0xb0, 0xb5, 0x85, 0x56, 0x2a, 0x00, 0x00, 0x03, 0xff, 0xff, 0xff,
   0xbf, 0xf4, 0xcd, 0x1f, 0x0e, 0xe3, 0xda, 0x8b, 0xb4, 0x58, 0x00, 0x00,
   0x03, 0xff, 0xff, 0xff, 0xff, 0xfc, 0x4e, 0x2b, 0x17, 0x45, 0x6e, 0x1a,
   0xd0, 0xa8, 0x00, 0x00, 0x03, 0xff, 0xff, 0xf7, 0xfb, 0xbe, 0x14, 0x7e,
   0x2d, 0x86, 0xda, 0x2d, 0x61, 0x50, 0x00, 0x00, 0x07, 0xff, 0xff, 0xff,
   0xff, 0xff, 0x3c, 0xb4, 0x77, 0x17, 0x68, 0x56, 0xa1, 0x60, 0x00, 0x00,
   0x07, 0xff, 0xff, 0xff, 0x3f, 0xdb, 0xf1, 0xe8, 0xbc, 0x2d, 0xb8, 0xeb,
   0x47, 0x40, 0x00, 0x00, 0x07, 0xff, 0xff, 0xfe, 0x0d, 0xff, 0xe1, 0x70,
   0xec, 0x36, 0xd0, 0xba, 0x8a, 0x80, 0x00, 0x00, 0x0f, 0xff, 0xff, 0xfc,
   0x0f, 0xda, 0x07, 0xc0, 0x00, 0xfb, 0xa3, 0x56, 0x15, 0x00, 0x00, 0x00,
   0x0f, 0xff, 0xff, 0xfc, 0x00, 0x00, 0x07, 0x00, 0x00, 0x5a, 0xc5, 0xf6,
   0x16, 0x00, 0x00, 0x00, 0x0f, 0xff, 0xff, 0xfc, 0x00, 0x01, 0x58, 0x00,
   0x00, 0x6f, 0x0a, 0xa8, 0x74, 0x00, 0x00, 0x00, 0x1f, 0xff, 0xff, 0xfc,
   0x07, 0xff, 0xf8, 0x00, 0x00, 0x2b, 0x0f, 0xb8, 0x58, 0x00, 0x00, 0x00,
   0x1f, 0xff, 0xff, 0xfe, 0x0f, 0xff, 0x60, 0x00, 0x00, 0x0c, 0x35, 0x51,
   0xa0, 0x00, 0x00, 0x00, 0x0f, 0xff, 0xff, 0xff, 0x7f, 0xff, 0xe0, 0x00,
   0x00, 0x04, 0x5d, 0xe2, 0xe0, 0x00, 0x00, 0x00, 0x07, 0xff, 0xff, 0xff,
   0xff, 0xc3, 0x80, 0x00, 0x00, 0x00, 0xb6, 0x85, 0x40, 0x00, 0x00, 0x00,
   0x03, 0xff, 0xff, 0xff, 0xff, 0xc0, 0x80, 0x00, 0x00, 0x01, 0xb5, 0x85,
   0x80, 0x00, 0x00, 0x00, 0x00, 0xff, 0xff, 0xff, 0xfb, 0x98, 0x00, 0x00,
   0x00, 0x00, 0xee, 0x1e, 0x00, 0x00, 0x00, 0x00, 0x00, 0x7f, 0xff, 0xff,
   0xff, 0xd0, 0x00, 0x00, 0x00, 0x00, 0xb6, 0x16, 0x00, 0x00, 0x00, 0x00,
   0x00, 0x3f, 0xff, 0xff, 0xff, 0x83, 0x00, 0x00, 0x00, 0x00, 0x6c, 0x68,
   0x00, 0x00, 0x00, 0x00, 0x00, 0x1f, 0xff, 0xff, 0xff, 0xfe, 0x00, 0x00,
   0x00, 0x00, 0x78, 0xbc, 0x00, 0x00, 0x00, 0x00, 0x00, 0x1f, 0xff, 0xff,
   0xff, 0xfc, 0x00, 0x00, 0x00, 0x00, 0x20, 0xd0, 0x00, 0x00, 0x00, 0x00,
   0x00, 0x1f, 0xff, 0xff, 0xff, 0xfc, 0x00, 0x00, 0x00, 0x00, 0x63, 0x60,
   0x00, 0x00, 0x00, 0x00, 0x00, 0x1f, 0xff, 0xff, 0xf7, 0xdc, 0x00, 0x00,
   0x00, 0x00, 0x05, 0x80, 0x00, 0x00, 0x00, 0x00, 0x00, 0x1f, 0xff, 0xff,
   0xff, 0xfc, 0x00, 0x00, 0x00, 0x00, 0x05, 0x80, 0x00, 0x00, 0x00, 0x00,
   0x00, 0x1f, 0xff, 0xff, 0xff, 0xfc, 0x00, 0x00, 0x00, 0x00, 0x1e, 0x00,
   0x00, 0x00, 0x01, 0x00, 0x00, 0x1f, 0xff, 0xff, 0xff, 0x9c, 0x00, 0x00,
   0x00, 0x00, 0x16, 0x07, 0x00, 0x00, 0x03, 0x00, 0x00, 0x1f, 0xff, 0xff,
   0xfc, 0x10, 0x00, 0x00, 0x00, 0x00, 0x3c, 0x0a, 0x80, 0x00, 0x05, 0x80,
   0x00, 0x1f, 0xff, 0xff, 0xfe, 0x00, 0x00, 0x00, 0x00, 0x00, 0x28, 0x07,
   0x40, 0x00, 0x0d, 0x80, 0x00, 0x3f, 0xff, 0xff, 0xfe, 0x04, 0x00, 0x00,
   0x00, 0x00, 0x30, 0x05, 0xa0, 0x00, 0x1b, 0x00, 0x00, 0x7f, 0xff, 0xff,
   0xff, 0x3c, 0x00, 0x00, 0x00, 0x00, 0x20, 0x01, 0xd0, 0x00, 0x2e, 0x00,
   0x01, 0xff, 0xfe, 0x3f, 0xff, 0xfc, 0x00, 0x00, 0x00, 0x00, 0x40, 0x00,
   0xe8, 0x00, 0x74, 0x00, 0x07, 0xff, 0xf8, 0x1f, 0xff, 0xfe, 0x00, 0x00,
   0x00, 0x00, 0x00, 0x00, 0xb4, 0x00, 0xb8, 0x00, 0x0f, 0xff, 0xf8, 0x0f,
   0xff, 0xfe, 0x00, 0x00, 0x00, 0x00, 0x03, 0x00, 0x6c, 0x01, 0xd0, 0x00,
   0x3f, 0xff, 0xf8, 0x0f, 0xff, 0xfe, 0x00, 0x00, 0x00, 0x00, 0x07, 0x80,
   0x37, 0x05, 0x60, 0x00, 0x3f, 0xff, 0xf8, 0x0f, 0xff, 0xff, 0x00, 0x00,
   0x00, 0x00, 0x0f, 0xc0, 0x1a, 0x87, 0x80, 0x10, 0x3f, 0xff, 0xf8, 0x0f,
   0xff, 0xff, 0x80, 0x00, 0x00, 0x00, 0x1f, 0x80, 0x0f, 0x4a, 0xc1, 0x50,
   0x1f, 0xff, 0xfc, 0x0f, 0xff, 0xff, 0x80, 0x00, 0x00, 0x00, 0x3f, 0x00,
   0x02, 0xdf, 0x02, 0xa0, 0x1f, 0xff, 0xff, 0x47, 0xff, 0xdf, 0xc0, 0x00,
   0x00, 0x00, 0x7e, 0x00, 0x02, 0xea, 0x03, 0x40, 0x1f, 0xff, 0xff, 0xf3,
   0xfe, 0x1f, 0xe0, 0x00, 0x00, 0x00, 0xfc, 0x00, 0x01, 0xb4, 0x0a, 0x80,
   0x1f, 0xff, 0xff, 0xf1, 0xfe, 0x03, 0xf0, 0x00, 0x00, 0x01, 0xf8, 0x00,
   0x00, 0xb8, 0x0d, 0x00, 0x0f, 0xff, 0xff, 0xfc, 0xfc, 0xe7, 0xf8, 0x00,
   0x00, 0x03, 0xf0, 0x00, 0x00, 0x50, 0x32, 0x00, 0x0f, 0xff, 0xff, 0xfc,
   0x7c, 0xf7, 0xfe, 0x00, 0x00, 0x07, 0xf8, 0x00, 0x00, 0x20, 0x00, 0x00,
   0x0f, 0xff, 0xff, 0xff, 0x3c, 0xe7, 0x7f, 0x80, 0x00, 0x0f, 0xfc, 0x00,
   0x00, 0x00, 0x80, 0x00, 0x0f, 0xff, 0xff, 0xff, 0x1c, 0xe7, 0xff, 0xf0,
   0x08, 0x1f, 0xfe, 0x00, 0x00, 0x00, 0x80, 0x00, 0x07, 0xff, 0xff, 0xff,
   0xce, 0x03, 0xee, 0xff, 0xf0, 0x3f, 0x3f, 0x00, 0x00, 0x02, 0x80, 0x00,
   0x07, 0xff, 0xff, 0xff, 0xc7, 0x91, 0xff, 0xff, 0xf0, 0x7e, 0x1f, 0x80,
   0x00, 0x03, 0x00, 0x00, 0x07, 0xff, 0xff, 0xff, 0xf3, 0xf8, 0xff, 0xbb,
   0x80, 0xfc, 0x0f, 0xc0, 0x00, 0x05, 0x00, 0x00, 0x00, 0xaf, 0xfe, 0x1f,
   0xf1, 0xfc, 0x3f, 0xd7, 0xc0, 0xf8, 0x07, 0xe0, 0x00, 0x0e, 0x00, 0x00,
   0x00, 0x00, 0xfe, 0x0f, 0xfc, 0xfe, 0x3f, 0xc3, 0x00, 0x30, 0x03, 0xf0,
   0x00, 0x34, 0x00, 0x00, 0x00, 0x00, 0xfe, 0x0f, 0xfe, 0x7f, 0x17, 0xc0,
   0x00, 0x00, 0x01, 0xf8, 0x00, 0x2c, 0x00, 0x00, 0x00, 0x00, 0x7e, 0x0f,
   0xfe, 0x3f, 0x8f, 0x80, 0x00, 0x00, 0x00, 0xfc, 0x00, 0x30, 0x00, 0x00,
   0x00, 0x00, 0x3f, 0x07, 0xff, 0x9f, 0xc3, 0xc0, 0x10, 0x00, 0x00, 0x7e,
   0x02, 0x30, 0x00, 0x00, 0x00, 0x00, 0x3f, 0xe3, 0xff, 0x8f, 0xe3, 0xc0,
   0x38, 0x00, 0x00, 0x3f, 0x05, 0x22, 0x00, 0x00, 0x00, 0x00, 0x1f, 0xf1,
   0xff, 0xc7, 0xf1, 0xe0, 0x7c, 0x00, 0x00, 0x1f, 0x06, 0x03, 0x00, 0x00,
   0x00, 0x00, 0x1f, 0xf8, 0xff, 0xf3, 0xf8, 0xc0, 0xfe, 0x00, 0x00, 0x0e,
   0x00, 0x07, 0x80, 0x00, 0x00, 0x00, 0x0f, 0xfc, 0x7f, 0xf1, 0xfc, 0x01,
   0xff, 0x00, 0x00, 0x00, 0x10, 0x0a, 0x80, 0x00, 0x00, 0x00, 0x0f, 0xfe,
   0x3f, 0xfc, 0xfe, 0x03, 0xff, 0x80, 0x00, 0x00, 0x0d, 0x8d, 0x00, 0x00,
   0x00, 0x00, 0x1f, 0xff, 0x1f, 0xfe, 0x7e, 0x07, 0xef, 0xc0, 0x00, 0x00,
   0x0e, 0xc7, 0x00, 0x00, 0x00, 0x00, 0x1f, 0xff, 0x8f, 0xfe, 0x1c, 0x0f,
   0xc7, 0xe0, 0x00, 0x00, 0x0b, 0x60, 0x30, 0x00, 0x00, 0x00, 0x3f, 0xff,
   0xc7, 0xff, 0x98, 0x1f, 0x83, 0xf0, 0x00, 0x00, 0x0b, 0x50, 0xa0, 0x00,
   0x00, 0x00, 0x3f, 0xff, 0xe3, 0xff, 0xc0, 0x3f, 0x03, 0xf0, 0x00, 0x03,
   0x46, 0xe8, 0xc0, 0x00, 0x00, 0x00, 0x7f, 0xff, 0xf1, 0xff, 0xe0, 0x7e,
   0x07, 0xf0, 0x00, 0x00, 0xe3, 0x6d, 0x40, 0x00, 0x00, 0x00, 0x7f, 0xff,
   0xf8, 0xff, 0xc0, 0xfc, 0x0f, 0xc0, 0x00, 0x18, 0xb0, 0xdb, 0x00, 0x00,
   0x00, 0x00, 0xff, 0xff, 0xfc, 0x7f, 0x81, 0xf8, 0x1f, 0x80, 0x00, 0x1c,
   0x38, 0xdb, 0x00, 0x00, 0x00, 0x00, 0xff, 0xff, 0xff, 0x3f, 0x83, 0xf0,
   0x3f, 0x00, 0x00, 0x76, 0x2c, 0x36, 0x00, 0x00, 0x00, 0x00, 0xff, 0xff,
   0xff, 0x1e, 0x07, 0xe0, 0x7e, 0x00, 0x00, 0x3f, 0x0e, 0x1a, 0x00, 0x00,
   0x00, 0x00, 0x7f, 0xff, 0xff, 0xcc, 0x0f, 0xe0, 0xfc, 0x00, 0x00, 0x16,
   0x87, 0x14, 0x00, 0x00, 0x00, 0x00, 0x3f, 0xff, 0xff, 0xc0, 0x07, 0xe1,
   0xf8, 0x00, 0x03, 0x8e, 0x01, 0x88, 0x00, 0x00, 0x00, 0x00, 0x1f, 0xff,
   0xff, 0xf0, 0x03, 0xf3, 0xf0, 0x00, 0x06, 0x84, 0x00, 0x00, 0x00, 0x00,
   0x00, 0x00, 0x0f, 0xff, 0xff, 0xe0, 0x01, 0xff, 0xe0, 0x00, 0x07, 0xe0,
   0x00, 0x00, 0x00, 0x00, 0x00, 0x00, 0x07, 0xff, 0xdf, 0xe0, 0x00, 0xff,
   0xc0, 0x00, 0x1e, 0xc0, 0x00, 0x00, 0x00, 0x00, 0x00, 0x00, 0x03, 0xff,
   0x07, 0x80, 0x00, 0x7f, 0xc0, 0x00, 0x17, 0xe0, 0x00, 0x00, 0x00, 0x00,
   0x00, 0x00, 0x01, 0xfc, 0x01, 0x80, 0x00, 0x3f, 0x80, 0x00, 0x0e, 0xc0,
   0x00, 0x00, 0x00, 0x00, 0x00, 0x00, 0x00, 0xf0, 0x00, 0x00, 0x00, 0x1f,
   0x80, 0x00, 0xc3, 0xe0, 0x00, 0x00, 0x00, 0x00, 0x00, 0x00, 0x00, 0x40,
   0x00, 0x00, 0x00, 0x0f, 0xc0, 0x01, 0xe2, 0xa0, 0x00, 0x00, 0x00, 0x00,
   0x00, 0x00, 0x00, 0x00, 0x00, 0x00, 0x00, 0x07, 0xe0, 0x01, 0xf1, 0xa0,
   0x00, 0x00, 0x00, 0x00, 0x00, 0x00, 0x00, 0x00, 0x00, 0x00, 0x00, 0x03,
   0xf0, 0x03, 0x78, 0xc0, 0x00, 0x00, 0x00, 0x00, 0x00, 0x00, 0x00, 0x00,
   0x00, 0x00, 0x00, 0x01, 0xf8, 0x01, 0xfc, 0x60, 0x00, 0x00, 0x00, 0x00,
   0x00, 0x00, 0x00, 0x00, 0x00, 0x00, 0x00, 0x00, 0xfc, 0x18, 0x7e, 0x00,
   0x00, 0x00, 0x00, 0x00, 0x00, 0x00, 0x00, 0x00, 0x00, 0x00, 0x00, 0x00,
   0x7c, 0x3e, 0x2f, 0x00, 0x00, 0x00, 0x00, 0x00, 0x00, 0x00, 0x00, 0x00,
   0x00, 0x00, 0x00, 0x00, 0x38, 0x3e, 0x3f, 0x80, 0x00, 0x00, 0x00, 0x00,
   0x00, 0x00, 0x00, 0x00, 0x00, 0x00, 0x00, 0x00, 0x00, 0x1f, 0x0b, 0xc0,
   0x00, 0x00, 0x00, 0x00, 0x00, 0x00, 0x00, 0x00, 0x00, 0x00, 0x00, 0x00,
   0x00, 0x1f, 0x8e, 0x00, 0x00, 0x00, 0x00, 0x00, 0x00, 0x00, 0x00, 0x00,
   0x00, 0x00, 0x00, 0x00, 0x00, 0x07, 0xc0, 0x00, 0x00, 0x00, 0x00, 0x00,
   0x00, 0x00, 0x00, 0x00, 0x00, 0x00, 0x00, 0x00, 0x00, 0x07, 0xe0, 0x00,
   0x00, 0x00, 0x00, 0x00, 0x00, 0x00, 0x00, 0x00, 0x00, 0x00, 0x00, 0x00,
   0x00, 0x02, 0x00, 0x00, 0x00, 0x00, 0x00, 0x00, 0x00, 0x00, 0x00, 0x00,
   0x00, 0x00, 0x00, 0x00, 0x00, 0x00, 0x00, 0x00, 0x00, 0x00, 0x00, 0x00,
   0x00, 0x00, 0x00, 0x00, 0x00, 0x00, 0x00, 0x00, 0x00, 0x00, 0x00, 0x00,
   0x00, 0x00, 0x00, 0x00, 0x00, 0x00, 0x00, 0x00, 0x00, 0x00, 0x00, 0x00,
   0x00, 0x00, 0x00, 0x00, 0x00, 0x00, 0x00, 0x00, 0x00, 0x00, 0x00, 0x00,
   0x00, 0x00, 0x00, 0x00, 0x00, 0x00, 0x00, 0x00, 0x00, 0x00, 0x00, 0x00,
   0x00, 0x00, 0x00, 0x00, 0x00, 0x00, 0x00, 0x00, 0x00, 0x00, 0x00, 0x00,
   0x00, 0x00, 0x00, 0x00, 0x00, 0x00, 0x00, 0x00, 0x00, 0x00, 0x00, 0x00,
   0x00, 0x00, 0x00, 0x00, 0x00, 0x00, 0x00, 0x00, 0x00, 0x00, 0x00, 0x00,
   0x00, 0x00, 0x00, 0x00, 0x00, 0x00, 0x00, 0x00, 0x00, 0x00, 0x00, 0x00,
   0x00, 0x00, 0x00, 0x00, 0x00, 0x00, 0x00, 0x00, 0x00, 0x00, 0x00, 0x00,
   0x00, 0x00, 0x00, 0x00, 0x00, 0x00, 0x00, 0x00, 0x00, 0x00, 0x00, 0x00,
   0x00, 0x00, 0x00, 0x00, 0x00, 0x00, 0x00, 0x00, 0x00, 0x00, 0x00, 0x00,
   0x00, 0x00, 0x00, 0x00, 0x00, 0x00, 0x00, 0x00, 0x00, 0x00, 0x00, 0x00,
   0x00, 0x00, 0x00, 0x00, 0x00, 0x00, 0x00, 0x00, 0x00, 0x00, 0x00, 0x00,
   0x00, 0x00, 0x00, 0x00, 0x00, 0x00, 0x00, 0x00, 0x00, 0x00, 0x00, 0x00,
   0x00, 0x00, 0x00, 0x00, 0x00, 0x00, 0x00, 0x00, 0x00, 0x00, 0x00, 0x00,
   0x00, 0x00, 0x00, 0x00, 0x00, 0x00, 0x00, 0x00, 0x00, 0x00, 0x00, 0x00,
   0x00, 0x00, 0x00, 0x00, 0x00, 0x00, 0x00, 0x00, 0x00, 0x00, 0x00, 0x00,
   0x00, 0x00, 0x00, 0x00 };
